<svg width="18" height="18" viewBox="0 0 18 18" fill="none" xmlns="http://www.w3.org/2000/svg">
<path d="M9 0C4.02945 0 0 4.02945 0 9C0 13.9705 4.02945 18 9 18C13.9705 18 18 13.9705 18 9C18 4.02945 13.9705 0 9 0ZM9 16.0435C5.10945 16.0435 1.95652 12.8896 1.95652 9C1.95652 5.11044 5.10945 1.95652 9 1.95652C12.8905 1.95652 16.0435 5.11044 16.0435 9C16.0435 12.8896 12.8905 16.0435 9 16.0435ZM10.7609 5.2337H7.23912V9.23478H5.03805L9 12.9619L12.9619 9.23478H10.7609L10.7609 5.2337Z" fill="white"/>
</svg>
