<svg width="22" height="22" viewBox="0 0 22 22" fill="none" xmlns="http://www.w3.org/2000/svg">
<path d="M19.25 2.75H2.75002C1.7371 2.75 0.916687 3.57042 0.916687 4.58333V7.33333H2.75002V4.58333H19.25V17.4167H12.8334V19.25H19.25C20.2629 19.25 21.0834 18.4296 21.0834 17.4167V4.58333C21.0834 3.57042 20.2629 2.75 19.25 2.75ZM0.916687 16.5V19.25H3.66669C3.66669 17.7329 2.43377 16.5 0.916687 16.5ZM0.916687 12.8333V14.6667C3.44669 14.6667 5.50002 16.72 5.50002 19.25H7.33335C7.33335 15.7071 4.4596 12.8333 0.916687 12.8333ZM0.916687 9.16667V11C5.47252 11 9.16669 14.6942 9.16669 19.25H11C11 13.6813 6.48544 9.16667 0.916687 9.16667Z" fill="white"/>
</svg>
