<svg width="20" height="21" viewBox="0 0 20 21" fill="none" xmlns="http://www.w3.org/2000/svg">
<rect x="1.20568" y="4.00484" width="12" height="13" rx="1" transform="rotate(-13.4893 1.20568 4.00484)" stroke="#787878" stroke-width="2"/>
<path d="M17 4.85H7C5.81259 4.85 4.85 5.81259 4.85 7V18C4.85 19.1874 5.81259 20.15 7 20.15H17C18.1874 20.15 19.15 19.1874 19.15 18V7C19.15 5.81259 18.1874 4.85 17 4.85Z" fill="black" stroke="black" stroke-width="0.3"/>
<path fill-rule="evenodd" clip-rule="evenodd" d="M17 7H7L7 18H17V7ZM7 5C5.89543 5 5 5.89543 5 7V18C5 19.1046 5.89543 20 7 20H17C18.1046 20 19 19.1046 19 18V7C19 5.89543 18.1046 5 17 5H7Z" fill="#787878"/>
<path d="M15 12.5L10.5 15.5311L10.5 9.46891L15 12.5Z" fill="#787878"/>
</svg>
